<mxfile host="app.diagrams.net" modified="2023-08-24T03:05:42.472Z" agent="Mozilla/5.0 (Windows NT 10.0; Win64; x64) AppleWebKit/537.36 (KHTML, like Gecko) Chrome/116.0.0.0 Safari/537.36" etag="MnfHerdPOKQ2kdbuQrCO" version="21.6.9" type="github">
  <diagram name="Page-1" id="qI5iTx6LYhn5DX0opfQC">
    <mxGraphModel dx="2074" dy="1118" grid="1" gridSize="10" guides="1" tooltips="1" connect="1" arrows="1" fold="1" page="1" pageScale="1" pageWidth="850" pageHeight="1100" math="0" shadow="0">
      <root>
        <mxCell id="0" />
        <mxCell id="1" parent="0" />
        <mxCell id="B4KQ11mXBmCKxKEufbTc-2" value="" style="ellipse;whiteSpace=wrap;html=1;aspect=fixed;" vertex="1" parent="1">
          <mxGeometry x="50" y="390" width="20" height="20" as="geometry" />
        </mxCell>
        <mxCell id="B4KQ11mXBmCKxKEufbTc-5" value="" style="endArrow=classic;html=1;rounded=0;" edge="1" parent="1">
          <mxGeometry relative="1" as="geometry">
            <mxPoint x="70" y="399.5" as="sourcePoint" />
            <mxPoint x="150" y="400" as="targetPoint" />
          </mxGeometry>
        </mxCell>
        <mxCell id="B4KQ11mXBmCKxKEufbTc-12" value="push event&lt;br&gt;" style="edgeLabel;html=1;align=center;verticalAlign=middle;resizable=0;points=[];" vertex="1" connectable="0" parent="B4KQ11mXBmCKxKEufbTc-5">
          <mxGeometry x="-0.1579" y="-3" relative="1" as="geometry">
            <mxPoint y="-3" as="offset" />
          </mxGeometry>
        </mxCell>
        <mxCell id="B4KQ11mXBmCKxKEufbTc-14" value="application" style="rounded=1;whiteSpace=wrap;html=1;" vertex="1" parent="1">
          <mxGeometry x="160" y="370" width="120" height="60" as="geometry" />
        </mxCell>
        <mxCell id="B4KQ11mXBmCKxKEufbTc-15" value="cache/DB" style="shape=cylinder3;whiteSpace=wrap;html=1;boundedLbl=1;backgroundOutline=1;size=15;" vertex="1" parent="1">
          <mxGeometry x="190" y="550" width="60" height="80" as="geometry" />
        </mxCell>
        <mxCell id="B4KQ11mXBmCKxKEufbTc-16" value="" style="endArrow=classic;html=1;rounded=0;exitX=0.5;exitY=1;exitDx=0;exitDy=0;entryX=0.5;entryY=0;entryDx=0;entryDy=0;entryPerimeter=0;" edge="1" parent="1" source="B4KQ11mXBmCKxKEufbTc-14" target="B4KQ11mXBmCKxKEufbTc-15">
          <mxGeometry relative="1" as="geometry">
            <mxPoint x="370" y="570" as="sourcePoint" />
            <mxPoint x="470" y="570" as="targetPoint" />
          </mxGeometry>
        </mxCell>
        <mxCell id="B4KQ11mXBmCKxKEufbTc-17" value="get partner&amp;nbsp;" style="edgeLabel;resizable=0;html=1;align=center;verticalAlign=middle;" connectable="0" vertex="1" parent="B4KQ11mXBmCKxKEufbTc-16">
          <mxGeometry relative="1" as="geometry" />
        </mxCell>
        <mxCell id="B4KQ11mXBmCKxKEufbTc-19" value="" style="endArrow=classic;html=1;rounded=0;exitX=1;exitY=0.5;exitDx=0;exitDy=0;" edge="1" parent="1" source="B4KQ11mXBmCKxKEufbTc-14">
          <mxGeometry relative="1" as="geometry">
            <mxPoint x="370" y="570" as="sourcePoint" />
            <mxPoint x="410" y="400" as="targetPoint" />
          </mxGeometry>
        </mxCell>
        <mxCell id="B4KQ11mXBmCKxKEufbTc-20" value="push to Kafka" style="edgeLabel;resizable=0;html=1;align=center;verticalAlign=middle;" connectable="0" vertex="1" parent="B4KQ11mXBmCKxKEufbTc-19">
          <mxGeometry relative="1" as="geometry" />
        </mxCell>
        <mxCell id="B4KQ11mXBmCKxKEufbTc-29" value="" style="edgeStyle=orthogonalEdgeStyle;rounded=0;orthogonalLoop=1;jettySize=auto;html=1;entryX=0;entryY=0.5;entryDx=0;entryDy=0;" edge="1" parent="1" source="B4KQ11mXBmCKxKEufbTc-21" target="B4KQ11mXBmCKxKEufbTc-27">
          <mxGeometry relative="1" as="geometry">
            <mxPoint x="640" y="400" as="targetPoint" />
          </mxGeometry>
        </mxCell>
        <mxCell id="B4KQ11mXBmCKxKEufbTc-33" value="handle &lt;br&gt;batch message" style="edgeLabel;html=1;align=center;verticalAlign=middle;resizable=0;points=[];" vertex="1" connectable="0" parent="B4KQ11mXBmCKxKEufbTc-29">
          <mxGeometry x="-0.0051" y="-1" relative="1" as="geometry">
            <mxPoint as="offset" />
          </mxGeometry>
        </mxCell>
        <mxCell id="B4KQ11mXBmCKxKEufbTc-21" value="Kafka" style="rounded=1;whiteSpace=wrap;html=1;" vertex="1" parent="1">
          <mxGeometry x="410" y="370" width="120" height="60" as="geometry" />
        </mxCell>
        <mxCell id="B4KQ11mXBmCKxKEufbTc-25" value="webhook service" style="rounded=0;whiteSpace=wrap;html=1;" vertex="1" parent="1">
          <mxGeometry x="660" y="290" width="120" height="40" as="geometry" />
        </mxCell>
        <mxCell id="B4KQ11mXBmCKxKEufbTc-26" value="webhook service" style="rounded=0;whiteSpace=wrap;html=1;" vertex="1" parent="1">
          <mxGeometry x="660" y="470" width="120" height="40" as="geometry" />
        </mxCell>
        <mxCell id="B4KQ11mXBmCKxKEufbTc-27" value="webhook service" style="rounded=0;whiteSpace=wrap;html=1;" vertex="1" parent="1">
          <mxGeometry x="660" y="380" width="120" height="40" as="geometry" />
        </mxCell>
        <mxCell id="B4KQ11mXBmCKxKEufbTc-34" value="" style="endArrow=classic;html=1;rounded=0;exitX=1;exitY=0.5;exitDx=0;exitDy=0;entryX=0;entryY=0.5;entryDx=0;entryDy=0;" edge="1" parent="1" source="B4KQ11mXBmCKxKEufbTc-21" target="B4KQ11mXBmCKxKEufbTc-26">
          <mxGeometry width="50" height="50" relative="1" as="geometry">
            <mxPoint x="560" y="580" as="sourcePoint" />
            <mxPoint x="450" y="550" as="targetPoint" />
          </mxGeometry>
        </mxCell>
        <mxCell id="B4KQ11mXBmCKxKEufbTc-35" value="" style="endArrow=classic;html=1;rounded=0;entryX=0;entryY=0.5;entryDx=0;entryDy=0;" edge="1" parent="1" target="B4KQ11mXBmCKxKEufbTc-25">
          <mxGeometry width="50" height="50" relative="1" as="geometry">
            <mxPoint x="530" y="400" as="sourcePoint" />
            <mxPoint x="670" y="500" as="targetPoint" />
          </mxGeometry>
        </mxCell>
        <mxCell id="B4KQ11mXBmCKxKEufbTc-36" value="save batch data to Mongo then commit to kafka" style="shape=cylinder3;whiteSpace=wrap;html=1;boundedLbl=1;backgroundOutline=1;size=15;" vertex="1" parent="1">
          <mxGeometry x="660" y="170" width="140" height="80" as="geometry" />
        </mxCell>
        <mxCell id="B4KQ11mXBmCKxKEufbTc-37" value="" style="endArrow=classic;html=1;rounded=0;exitX=0.5;exitY=0;exitDx=0;exitDy=0;entryX=0.424;entryY=0.992;entryDx=0;entryDy=0;entryPerimeter=0;" edge="1" parent="1" source="B4KQ11mXBmCKxKEufbTc-25" target="B4KQ11mXBmCKxKEufbTc-36">
          <mxGeometry width="50" height="50" relative="1" as="geometry">
            <mxPoint x="400" y="600" as="sourcePoint" />
            <mxPoint x="710" y="260" as="targetPoint" />
          </mxGeometry>
        </mxCell>
      </root>
    </mxGraphModel>
  </diagram>
</mxfile>
